#tb 0: 1/96000
#media_type 0: audio
#codec_id 0: pcm_s24le
#sample_rate 0: 96000
#channel_layout_name 0: 5.1(side)
0,          0,          0,     1024,    18432, 0x00000000
0,       1024,       1024,     1024,    18432, 0x00000000
0,       2048,       2048,     1024,    18432, 0xa6b18739
0,       3072,       3072,     1024,    18432, 0xd4df050d
0,       4096,       4096,     1024,    18432, 0xd2fba779
0,       5120,       5120,     1024,    18432, 0x9ba1c641
